{
    "asset" : {
        "generator" : "Khronos glTF Blender I/O v3.4.50",
        "version" : "2.0"
    },
    "scene" : 0,
    "scenes" : [
        {
            "name" : "Scene",
            "nodes" : [
                0,
                1
            ]
        }
    ],
    "nodes" : [
        {
            "mesh" : 0,
            "name" : "Cube"
        },
        {
            "mesh" : 1,
            "name" : "Cube.001"
        }
    ],
    "materials" : [
        {
            "doubleSided" : true,
            "name" : "Material.004",
            "pbrMetallicRoughness" : {
                "baseColorFactor" : [
                    0.8000000715255737,
                    0.16309158504009247,
                    0,
                    1
                ],
                "metallicFactor" : 0,
                "roughnessFactor" : 0.5
            }
        },
        {
            "doubleSided" : true,
            "name" : "Material.003",
            "pbrMetallicRoughness" : {
                "baseColorFactor" : [
                    0.22021402418613434,
                    0.8000000715255737,
                    0,
                    1
                ],
                "metallicFactor" : 0,
                "roughnessFactor" : 0.5
            }
        }
    ],
    "meshes" : [
        {
            "name" : "Cube.001",
            "primitives" : [
                {
                    "attributes" : {
                        "POSITION" : 0,
                        "TEXCOORD_0" : 1,
                        "NORMAL" : 2
                    },
                    "indices" : 3,
                    "material" : 0
                }
            ]
        },
        {
            "name" : "Cube.002",
            "primitives" : [
                {
                    "attributes" : {
                        "POSITION" : 4,
                        "TEXCOORD_0" : 5,
                        "NORMAL" : 6
                    },
                    "indices" : 7,
                    "material" : 1
                }
            ]
        }
    ],
    "accessors" : [
        {
            "bufferView" : 0,
            "componentType" : 5126,
            "count" : 477,
            "max" : [
                10.892183303833008,
                3.3333330154418945,
                11.353473663330078
            ],
            "min" : [
                -10.95590591430664,
                -5,
                -10.684053421020508
            ],
            "type" : "VEC3"
        },
        {
            "bufferView" : 1,
            "componentType" : 5126,
            "count" : 477,
            "type" : "VEC2"
        },
        {
            "bufferView" : 2,
            "componentType" : 5126,
            "count" : 477,
            "type" : "VEC3"
        },
        {
            "bufferView" : 3,
            "componentType" : 5123,
            "count" : 2310,
            "type" : "SCALAR"
        },
        {
            "bufferView" : 4,
            "componentType" : 5126,
            "count" : 651,
            "max" : [
                10.70815658569336,
                5.9689717292785645,
                10.374032974243164
            ],
            "min" : [
                -10.865901947021484,
                2.178466558456421,
                -10.408329963684082
            ],
            "type" : "VEC3"
        },
        {
            "bufferView" : 5,
            "componentType" : 5126,
            "count" : 651,
            "type" : "VEC2"
        },
        {
            "bufferView" : 6,
            "componentType" : 5126,
            "count" : 651,
            "type" : "VEC3"
        },
        {
            "bufferView" : 7,
            "componentType" : 5123,
            "count" : 2622,
            "type" : "SCALAR"
        }
    ],
    "bufferViews" : [
        {
            "buffer" : 0,
            "byteLength" : 5724,
            "byteOffset" : 0,
            "target" : 34962
        },
        {
            "buffer" : 0,
            "byteLength" : 3816,
            "byteOffset" : 5724,
            "target" : 34962
        },
        {
            "buffer" : 0,
            "byteLength" : 5724,
            "byteOffset" : 9540,
            "target" : 34962
        },
        {
            "buffer" : 0,
            "byteLength" : 4620,
            "byteOffset" : 15264,
            "target" : 34963
        },
        {
            "buffer" : 0,
            "byteLength" : 7812,
            "byteOffset" : 19884,
            "target" : 34962
        },
        {
            "buffer" : 0,
            "byteLength" : 5208,
            "byteOffset" : 27696,
            "target" : 34962
        },
        {
            "buffer" : 0,
            "byteLength" : 7812,
            "byteOffset" : 32904,
            "target" : 34962
        },
        {
            "buffer" : 0,
            "byteLength" : 5244,
            "byteOffset" : 40716,
            "target" : 34963
        }
    ],
    "buffers" : [
        {
            "byteLength" : 45960,
            "uri" : "data:application/octet-stream;base64,"
        }
    ]
}
